<?xml version="1.0" encoding="utf-8"?>
<!-- Generator: Adobe Illustrator 16.0.0, SVG Export Plug-In . SVG Version: 6.00 Build 0)  -->
<!DOCTYPE svg PUBLIC "-//W3C//DTD SVG 1.1//EN" "http://www.w3.org/Graphics/SVG/1.1/DTD/svg11.dtd">
<svg version="1.1" id="Backgrounds" xmlns="http://www.w3.org/2000/svg" xmlns:xlink="http://www.w3.org/1999/xlink" x="0px"
	 y="0px" width="2040px" height="1020px" viewBox="0 0 2040 1020" enable-background="new 0 0 2040 1020" xml:space="preserve">
<rect fill="#062023" width="2040" height="1020"/>
<g opacity="0.75">
	<path fill="#95CA65" d="M7.871,39.353c0-17.386,14.096-31.482,31.479-31.482c17.388,0,31.483,14.097,31.483,31.482
		c0,17.387-14.095,31.481-31.483,31.481C21.966,70.834,7.871,56.74,7.871,39.353z"/>
	<circle fill="#6DABDD" cx="118.055" cy="39.353" r="31.481"/>
	<circle fill="#3BA9CD" cx="432.87" cy="354.166" r="31.481"/>
	<circle fill="#3BA9CD" cx="590.277" cy="196.759" r="31.481"/>
	<circle fill="#6DABDD" cx="905.095" cy="118.057" r="31.482"/>
	<circle fill="#34449B" cx="196.759" cy="39.353" r="31.481"/>
	<path fill="#3D8E60" d="M7.871,118.057c0-17.388,14.096-31.482,31.479-31.482c17.388,0,31.483,14.095,31.483,31.482
		c0,17.385-14.095,31.479-31.483,31.479C21.966,149.536,7.871,135.441,7.871,118.057z"/>
	<circle fill="#4390BB" cx="118.055" cy="118.057" r="31.481"/>
	<circle fill="#3BA9CD" cx="432.87" cy="39.352" r="31.481"/>
	<circle fill="#296F8C" cx="432.87" cy="118.055" r="31.481"/>
	<path fill="#296F8C" d="M245.554,44.074c0-17.387,14.096-31.483,31.481-31.483c17.387,0,31.481,14.096,31.481,31.483
		c0,17.385-14.094,31.482-31.481,31.482C259.65,75.556,245.554,61.459,245.554,44.074z"/>
	<circle fill="#3A54A4" cx="196.759" cy="118.057" r="31.481"/>
	<circle fill="#234093" cx="275.463" cy="118.057" r="31.481"/>
	<circle fill="#234093" cx="354.167" cy="196.759" r="31.482"/>
	<circle fill="#234093" cx="432.87" cy="432.871" r="31.481"/>
	<circle fill="#234093" cx="354.166" cy="118.057" r="31.481"/>
	<circle fill="#293992" cx="354.167" cy="39.352" r="31.482"/>
	<circle fill="#2A3881" cx="39.35" cy="196.76" r="31.481"/>
	<circle fill="#9F4954" cx="118.054" cy="196.76" r="31.482"/>
	<circle fill="#3E64AE" cx="196.757" cy="196.76" r="31.481"/>
	<circle fill="#026085" cx="275.462" cy="196.76" r="31.482"/>
	<path fill="#2650A2" d="M7.869,275.464c0-17.388,14.095-31.483,31.481-31.483c17.387,0,31.481,14.095,31.481,31.483
		c0,17.385-14.095,31.479-31.481,31.479C21.964,306.943,7.869,292.849,7.869,275.464z"/>
	<path fill="#2E4098" d="M86.573,275.464c0-17.388,14.095-31.483,31.481-31.483c17.386,0,31.482,14.095,31.482,31.483
		c0,17.385-14.096,31.479-31.482,31.479C100.668,306.943,86.573,292.849,86.573,275.464z"/>
	<path fill="#AF915E" d="M165.276,275.464c0-17.388,14.095-31.483,31.481-31.483s31.481,14.095,31.481,31.483
		c0,17.385-14.095,31.479-31.481,31.479S165.276,292.849,165.276,275.464z"/>
	<path fill="#5B3E7B" d="M7.871,354.168c0-17.386,14.096-31.482,31.479-31.482c17.388,0,31.483,14.096,31.483,31.482
		c0,17.387-14.095,31.481-31.483,31.481C21.966,385.65,7.871,371.555,7.871,354.168z"/>
	<circle fill="#2E93B2" cx="118.055" cy="354.168" r="31.481"/>
	<circle fill="#387FA5" cx="196.759" cy="354.168" r="31.481"/>
	<circle fill="#41A7D9" cx="275.463" cy="354.168" r="31.481"/>
	<path fill="#1D3F75" d="M7.871,432.871c0-17.385,14.096-31.481,31.479-31.481c17.388,0,31.483,14.096,31.483,31.481
		c0,17.386-14.095,31.481-31.483,31.481C21.966,464.352,7.871,450.257,7.871,432.871z"/>
	<circle fill="#1E4495" cx="432.87" cy="196.76" r="31.481"/>
	<path fill="#3B5FA5" d="M401.389,275.464c0-17.388,14.095-31.483,31.481-31.483c17.385,0,31.48,14.095,31.48,31.483
		c0,17.385-14.095,31.479-31.48,31.479C415.484,306.943,401.389,292.849,401.389,275.464z"/>
	<circle fill="#28387F" cx="118.055" cy="432.871" r="31.481"/>
	<circle fill="#3757A6" cx="196.759" cy="432.871" r="31.481"/>
	<circle fill="#994E8F" cx="275.463" cy="432.871" r="31.481"/>
	<circle fill="#994E8F" cx="354.166" cy="432.871" r="31.481"/>
	<circle fill="#208AB4" cx="354.167" cy="354.167" r="31.482"/>
	<rect fill="#1F181F" width="0" height="0"/>
	<circle fill="#3B5FA5" cx="511.574" cy="39.353" r="31.482"/>
	<circle fill="#293992" cx="590.279" cy="39.353" r="31.481"/>
	<circle fill="#34449B" cx="668.981" cy="39.353" r="31.482"/>
	<circle fill="#2E93B2" cx="747.685" cy="39.353" r="31.48"/>
	<circle fill="#554F87" cx="511.574" cy="118.057" r="31.482"/>
	<path fill="#034C6A" d="M873.61,39.352c0-17.386,14.093-31.481,31.479-31.481c17.391,0,31.484,14.095,31.484,31.481
		c0,17.387-14.093,31.481-31.484,31.481C887.704,70.833,873.61,56.738,873.61,39.352z"/>
	<circle fill="#3A54A4" cx="668.981" cy="118.057" r="31.482"/>
	<circle fill="#28387F" cx="747.685" cy="118.057" r="31.48"/>
	<path fill="#0C6181" d="M322.685,275.464c0-17.388,14.096-31.483,31.481-31.483c17.388,0,31.481,14.095,31.481,31.483
		c0,17.385-14.093,31.479-31.481,31.479C336.781,306.943,322.685,292.849,322.685,275.464z"/>
	<path fill="#2E93B2" d="M873.61,354.167c0-17.385,14.093-31.482,31.479-31.482c17.391,0,31.484,14.098,31.484,31.482
		c0,17.387-14.093,31.481-31.484,31.481C887.704,385.648,873.61,371.554,873.61,354.167z"/>
	<path fill="#28387F" d="M873.61,432.871c0-17.388,14.093-31.482,31.479-31.482c17.391,0,31.484,14.095,31.484,31.482
		c0,17.385-14.093,31.479-31.484,31.479C887.704,464.35,873.61,450.255,873.61,432.871z"/>
	<circle fill="#28387F" cx="826.387" cy="118.057" r="31.479"/>
	<path fill="#2A3881" d="M794.908,39.352c0-17.386,14.093-31.481,31.479-31.481c17.386,0,31.487,14.095,31.487,31.481
		c0,17.387-14.101,31.481-31.487,31.481C809.001,70.833,794.908,56.738,794.908,39.352z"/>
	<circle fill="#171016" cx="511.573" cy="196.76" r="31.481"/>
	<circle fill="#2E4098" cx="668.98" cy="196.76" r="31.481"/>
	<circle fill="#9F4954" cx="747.684" cy="196.76" r="31.481"/>
	<path fill="#1E4495" d="M480.092,275.464c0-17.388,14.096-31.483,31.48-31.483c17.388,0,31.482,14.095,31.482,31.483
		c0,17.385-14.094,31.479-31.482,31.479C494.188,306.943,480.092,292.849,480.092,275.464z"/>
	<path fill="#026085" d="M558.795,275.464c0-17.388,14.095-31.483,31.482-31.483c17.386,0,31.48,14.095,31.48,31.483
		c0,17.385-14.094,31.479-31.48,31.479C572.891,306.943,558.795,292.849,558.795,275.464z"/>
	<path fill="#4C73B7" d="M637.499,275.464c0-17.388,14.096-31.483,31.479-31.483c17.389,0,31.482,14.095,31.482,31.483
		c0,17.385-14.094,31.479-31.482,31.479C651.595,306.943,637.499,292.849,637.499,275.464z"/>
	<path fill="#3E64AE" d="M716.203,275.464c0-17.388,14.096-31.483,31.48-31.483c17.386,0,31.482,14.095,31.482,31.483
		c0,17.385-14.096,31.479-31.482,31.479C730.298,306.943,716.203,292.849,716.203,275.464z"/>
	<path fill="#3E64AE" d="M794.904,275.464c0-17.388,14.098-31.483,31.483-31.483c17.386,0,31.479,14.095,31.479,31.483
		c0,17.385-14.093,31.479-31.479,31.479C809.001,306.943,794.904,292.849,794.904,275.464z"/>
	<circle fill="#387FA5" cx="826.387" cy="196.759" r="31.479"/>
	<circle fill="#296F8C" cx="511.574" cy="354.168" r="31.482"/>
	<circle fill="#296F8C" cx="590.277" cy="125.926" r="31.481"/>
	<path fill="#4390BB" d="M873.61,590.279c0-17.388,14.093-31.484,31.479-31.484c17.387,0,31.484,14.096,31.484,31.484
		c0,17.383-14.098,31.478-31.484,31.478C887.704,621.757,873.61,607.663,873.61,590.279z"/>
	<circle fill="#3BA9CD" cx="590.279" cy="354.168" r="31.481"/>
	<circle fill="#1C449B" cx="668.981" cy="354.168" r="31.482"/>
	<circle fill="#3D8E60" cx="747.685" cy="354.168" r="31.48"/>
	<circle fill="#208AB4" cx="511.574" cy="432.871" r="31.482"/>
	<path fill="#4390BB" d="M873.61,196.76c0-17.386,14.093-31.482,31.479-31.482c17.391,0,31.484,14.097,31.484,31.482
		c0,17.386-14.093,31.481-31.484,31.481C887.704,228.241,873.61,214.146,873.61,196.76z"/>
	<path fill="#286197" d="M873.61,275.464c0-17.388,14.093-31.483,31.479-31.483c17.391,0,31.484,14.095,31.484,31.483
		c0,17.385-14.093,31.479-31.484,31.479C887.704,306.943,873.61,292.849,873.61,275.464z"/>
	<circle fill="#3757A6" cx="668.981" cy="432.871" r="31.482"/>
	<circle fill="#253D8A" cx="747.685" cy="432.871" r="31.48"/>
	<circle fill="#253D8A" cx="826.387" cy="432.871" r="31.479"/>
	<path fill="#95CA65" d="M794.908,354.167c0-17.385,14.093-31.482,31.479-31.482c17.386,0,31.487,14.098,31.487,31.482
		c0,17.387-14.101,31.481-31.487,31.481C809.001,385.648,794.908,371.554,794.908,354.167z"/>
	<rect x="472.223" fill="#171016" width="0" height="0"/>
	<circle fill="#60A2D8" cx="511.574" cy="196.759" r="31.482"/>
	<path fill="#9F4954" d="M7.871,511.579c0-17.388,14.096-31.482,31.479-31.482c17.388,0,31.483,14.095,31.483,31.482
		c0,17.383-14.095,31.482-31.483,31.482C21.966,543.061,7.871,528.962,7.871,511.579z"/>
	<path fill="#4C73B7" d="M86.574,511.579c0-17.388,14.096-31.482,31.481-31.482c17.386,0,31.481,14.095,31.481,31.482
		c0,17.383-14.095,31.482-31.481,31.482C100.67,543.061,86.574,528.962,86.574,511.579z"/>
	<path fill="#286197" d="M165.278,511.579c0-17.388,14.095-31.482,31.479-31.482c17.388,0,31.483,14.095,31.483,31.482
		c0,17.383-14.095,31.482-31.483,31.482C179.374,543.061,165.278,528.962,165.278,511.579z"/>
	<path fill="#3B5FA5" d="M243.981,511.579c0-17.388,14.095-31.482,31.482-31.482c17.385,0,31.48,14.095,31.48,31.482
		c0,17.383-14.095,31.482-31.48,31.482C258.077,543.061,243.981,528.962,243.981,511.579z"/>
	<path fill="#3757A6" d="M7.871,590.279c0-17.385,14.096-31.48,31.479-31.48c17.388,0,31.483,14.095,31.483,31.48
		c0,17.386-14.095,31.482-31.483,31.482C21.966,621.762,7.871,607.666,7.871,590.279z"/>
	<circle fill="#4390BB" cx="118.055" cy="590.279" r="31.481"/>
	<path fill="#994E8F" d="M401.389,511.577c0-17.388,14.095-31.484,31.481-31.484c17.385,0,31.48,14.097,31.48,31.484
		c0,17.385-14.095,31.481-31.48,31.481C415.484,543.058,401.389,528.962,401.389,511.577z"/>
	<circle fill="#296F8C" cx="432.87" cy="590.279" r="31.481"/>
	<path fill="#296F8C" d="M243.981,668.982c0-17.388,14.095-31.482,31.482-31.482c17.385,0,31.48,14.095,31.48,31.482
		c0,17.383-14.095,31.479-31.48,31.479C258.077,700.462,243.981,686.366,243.981,668.982z"/>
	<path fill="#296F8C" d="M243.981,275.464c0-17.388,14.095-31.483,31.482-31.483c17.385,0,31.48,14.095,31.48,31.483
		c0,17.385-14.095,31.479-31.48,31.479C258.077,306.943,243.981,292.849,243.981,275.464z"/>
	<circle fill="#3A54A4" cx="196.759" cy="590.279" r="31.481"/>
	<circle fill="#1E4495" cx="275.463" cy="590.279" r="31.481"/>
	<path fill="#3B5FA5" d="M401.389,826.393c0-17.391,14.095-31.482,31.481-31.482c17.385,0,31.48,14.091,31.48,31.482
		c0,17.388-14.095,31.482-31.48,31.482C415.484,857.875,401.389,843.78,401.389,826.393z"/>
	<path fill="#1E4495" d="M401.389,905.093c0-17.382,14.095-31.482,31.481-31.482c17.385,0,31.48,14.101,31.48,31.482
		c0,17.388-14.095,31.482-31.48,31.482C415.484,936.575,401.389,922.48,401.389,905.093z"/>
	<circle fill="#1E4495" cx="354.166" cy="590.279" r="31.481"/>
	<path fill="#293992" d="M322.685,511.577c0-17.388,14.096-31.484,31.481-31.484c17.388,0,31.483,14.097,31.483,31.484
		c0,17.385-14.095,31.481-31.483,31.481C336.781,543.058,322.685,528.962,322.685,511.577z"/>
	<path fill="#2A3881" d="M7.869,668.985c0-17.388,14.095-31.482,31.481-31.482c17.387,0,31.481,14.095,31.481,31.482
		c0,17.384-14.095,31.483-31.481,31.483C21.964,700.468,7.869,686.369,7.869,668.985z"/>
	<path fill="#6DABDD" d="M86.573,668.985c0-17.388,14.095-31.482,31.481-31.482c17.386,0,31.482,14.095,31.482,31.482
		c0,17.384-14.096,31.483-31.482,31.483C100.668,700.468,86.573,686.369,86.573,668.985z"/>
	<path fill="#387FA5" d="M165.276,668.985c0-17.388,14.095-31.482,31.481-31.482s31.481,14.095,31.481,31.482
		c0,17.384-14.095,31.483-31.481,31.483S165.276,686.369,165.276,668.985z"/>
	<circle fill="#2650A2" cx="39.35" cy="747.686" r="31.481"/>
	<circle fill="#28387F" cx="118.054" cy="747.686" r="31.482"/>
	<path fill="#0C6181" d="M558.795,590.279c0-17.388,14.095-31.484,31.482-31.484c17.386,0,31.48,14.096,31.48,31.484
		c0,17.386-14.094,31.478-31.48,31.478C572.891,621.757,558.795,607.666,558.795,590.279z"/>
	<path fill="#0C6181" d="M243.981,747.686c0-17.388,14.095-31.482,31.482-31.482c17.385,0,31.48,14.095,31.48,31.482
		c0,17.383-14.095,31.479-31.48,31.479C258.077,779.166,243.981,765.069,243.981,747.686z"/>
	<circle fill="#95CA65" cx="196.757" cy="747.686" r="31.481"/>
	<path fill="#0C84B9" d="M322.685,668.985c0-17.388,14.095-31.482,31.479-31.482c17.388,0,31.483,14.095,31.483,31.482
		c0,17.384-14.095,31.48-31.483,31.48C336.78,700.465,322.685,686.369,322.685,668.985z"/>
	<path fill="#1C449B" d="M7.871,826.393c0-17.385,14.096-31.482,31.479-31.482c17.388,0,31.483,14.098,31.483,31.482
		c0,17.388-14.095,31.482-31.483,31.482C21.966,857.875,7.871,843.78,7.871,826.393z"/>
	<circle fill="#253D8A" cx="118.055" cy="826.393" r="31.481"/>
	<circle fill="#171016" cx="275.463" cy="826.393" r="31.481"/>
	<path fill="#263D84" d="M7.871,905.093c0-17.382,14.096-31.477,31.479-31.477c17.388,0,31.483,14.095,31.483,31.477
		c0,17.388-14.095,31.482-31.483,31.482C21.966,936.575,7.871,922.48,7.871,905.093z"/>
	<path fill="#234093" d="M401.389,668.985c0-17.388,14.095-31.482,31.481-31.482c17.385,0,31.48,14.095,31.48,31.482
		c0,17.384-14.095,31.483-31.48,31.483C415.484,700.468,401.389,686.369,401.389,668.985z"/>
	<circle fill="#026085" cx="432.87" cy="747.686" r="31.481"/>
	<path fill="#3D8E60" d="M86.574,905.093c0-17.382,14.096-31.477,31.481-31.477c17.386,0,31.481,14.095,31.481,31.477
		c0,17.388-14.095,31.482-31.481,31.482C100.67,936.575,86.574,922.48,86.574,905.093z"/>
	<path fill="#2E93B2" d="M165.278,905.093c0-17.382,14.095-31.477,31.479-31.477c17.388,0,31.483,14.095,31.483,31.477
		c0,17.388-14.095,31.482-31.483,31.482C179.374,936.575,165.278,922.48,165.278,905.093z"/>
	<path fill="#A3654C" d="M243.981,905.093c0-17.382,14.095-31.477,31.482-31.477c17.385,0,31.48,14.095,31.48,31.477
		c0,17.388-14.095,31.482-31.48,31.482C258.077,936.575,243.981,922.48,243.981,905.093z"/>
	<path fill="#A3654C" d="M322.685,905.093c0-17.382,14.095-31.477,31.479-31.477c17.388,0,31.483,14.095,31.483,31.477
		c0,17.388-14.095,31.482-31.483,31.482C336.78,936.575,322.685,922.48,322.685,905.093z"/>
	<path fill="#0074A1" d="M322.685,826.393c0-17.391,14.096-31.482,31.481-31.482c17.388,0,31.483,14.091,31.483,31.482
		c0,17.388-14.095,31.482-31.483,31.482C336.781,857.875,322.685,843.78,322.685,826.393z"/>
	<rect y="472.224" fill="#1F181F" width="0" height="0"/>
	<path fill="#026085" d="M480.092,511.579c0-17.388,14.096-31.482,31.482-31.482c17.387,0,31.482,14.095,31.482,31.482
		c0,17.383-14.095,31.482-31.482,31.482C494.188,543.061,480.092,528.962,480.092,511.579z"/>
	<path fill="#293992" d="M558.797,511.579c0-17.388,14.095-31.482,31.481-31.482c17.386,0,31.481,14.095,31.481,31.482
		c0,17.383-14.095,31.482-31.481,31.482C572.893,543.061,558.797,528.962,558.797,511.579z"/>
	<path fill="#286197" d="M637.499,511.579c0-17.388,14.096-31.482,31.481-31.482c17.388,0,31.483,14.095,31.483,31.482
		c0,17.383-14.095,31.482-31.483,31.482C651.595,543.061,637.499,528.962,637.499,511.579z"/>
	<path fill="#253D8A" d="M716.205,511.579c0-17.388,14.095-31.482,31.481-31.482s31.479,14.095,31.479,31.482
		c0,17.383-14.093,31.482-31.479,31.482S716.205,528.962,716.205,511.579z"/>
	<circle fill="#554F87" cx="511.574" cy="590.279" r="31.482"/>
	<path fill="#034C6A" d="M873.61,511.577c0-17.388,14.093-31.484,31.479-31.484c17.391,0,31.484,14.097,31.484,31.484
		c0,17.385-14.093,31.481-31.484,31.481C887.704,543.058,873.61,528.962,873.61,511.577z"/>
	<path fill="#034C6A" d="M560.368,428.148c0-17.388,14.093-31.483,31.479-31.483c17.391,0,31.484,14.095,31.484,31.483
		c0,17.386-14.093,31.481-31.484,31.481C574.461,459.629,560.368,445.535,560.368,428.148z"/>
	<circle fill="#3A54A4" cx="668.981" cy="590.279" r="31.482"/>
	<circle fill="#3D8E60" cx="747.685" cy="590.279" r="31.48"/>
	<path fill="#253D8A" d="M873.61,826.393c0-17.391,14.093-31.482,31.479-31.482c17.391,0,31.484,14.091,31.484,31.482
		c0,17.388-14.093,31.482-31.484,31.482C887.704,857.875,873.61,843.78,873.61,826.393z"/>
	<path fill="#3D8E60" d="M873.61,905.093c0-17.382,14.093-31.482,31.479-31.482c17.391,0,31.484,14.101,31.484,31.482
		c0,17.388-14.093,31.482-31.484,31.482C887.704,936.575,873.61,922.48,873.61,905.093z"/>
	<circle fill="#3D8E60" cx="826.387" cy="590.279" r="31.479"/>
	<path fill="#2A3881" d="M794.908,511.577c0-17.388,14.093-31.484,31.479-31.484c17.386,0,31.487,14.097,31.487,31.484
		c0,17.385-14.101,31.481-31.487,31.481C809.001,543.058,794.908,528.962,794.908,511.577z"/>
	<path fill="#171016" d="M480.092,668.985c0-17.388,14.096-31.482,31.48-31.482c17.388,0,31.482,14.095,31.482,31.482
		c0,17.384-14.094,31.483-31.482,31.483C494.188,700.468,480.092,686.369,480.092,668.985z"/>
	<path fill="#0C84B9" d="M558.795,668.985c0-17.388,14.095-31.482,31.482-31.482c17.386,0,31.48,14.095,31.48,31.482
		c0,17.384-14.094,31.483-31.48,31.483C572.891,700.468,558.795,686.369,558.795,668.985z"/>
	<path fill="#28387F" d="M637.499,668.985c0-17.388,14.096-31.482,31.479-31.482c17.389,0,31.482,14.095,31.482,31.482
		c0,17.384-14.094,31.483-31.482,31.483C651.595,700.468,637.499,686.369,637.499,668.985z"/>
	<path fill="#6DABDD" d="M716.203,668.985c0-17.388,14.096-31.482,31.48-31.482c17.386,0,31.482,14.095,31.482,31.482
		c0,17.384-14.096,31.483-31.482,31.483C730.298,700.468,716.203,686.369,716.203,668.985z"/>
	<circle fill="#234093" cx="511.573" cy="747.686" r="31.481"/>
	<circle fill="#2E4098" cx="668.98" cy="747.686" r="31.481"/>
	<circle fill="#387FA5" cx="747.684" cy="747.686" r="31.481"/>
	<circle fill="#387FA5" cx="826.385" cy="747.686" r="31.481"/>
	<circle fill="#296F8C" cx="511.574" cy="826.393" r="31.482"/>
	<circle fill="#994E8F" cx="590.279" cy="826.393" r="31.481"/>
	<circle fill="#5B3E7B" cx="668.981" cy="826.393" r="31.482"/>
	<circle fill="#3757A6" cx="747.685" cy="826.393" r="31.48"/>
	<path fill="#0074A1" d="M480.092,905.093c0-17.382,14.096-31.477,31.482-31.477c17.387,0,31.482,14.095,31.482,31.477
		c0,17.388-14.095,31.482-31.482,31.482C494.188,936.575,480.092,922.48,480.092,905.093z"/>
	<path fill="#4390BB" d="M873.61,668.985c0-17.388,14.093-31.482,31.479-31.482c17.391,0,31.484,14.095,31.484,31.482
		c0,17.384-14.093,31.483-31.484,31.483C887.704,700.468,873.61,686.369,873.61,668.985z"/>
	<path fill="#4390BB" d="M245.554,827.96c0-17.388,14.094-31.482,31.479-31.482c17.392,0,31.485,14.095,31.485,31.482
		c0,17.385-14.094,31.483-31.485,31.483C259.648,859.443,245.554,845.346,245.554,827.96z"/>
	<path fill="#296F8C" d="M322.684,747.686c0-17.388,14.093-31.482,31.479-31.482c17.392,0,31.485,14.095,31.485,31.482
		c0,17.383-14.093,31.479-31.485,31.479C336.777,779.166,322.684,765.069,322.684,747.686z"/>
	<path fill="#4390BB" d="M165.276,826.387c0-17.388,14.094-31.48,31.48-31.48c17.391,0,31.484,14.092,31.484,31.48
		c0,17.386-14.094,31.482-31.484,31.482C179.37,857.869,165.276,843.773,165.276,826.387z"/>
	<path fill="#296F8C" d="M558.795,747.686c0-17.388,14.093-31.482,31.479-31.482c17.392,0,31.485,14.095,31.485,31.482
		c0,17.383-14.093,31.482-31.485,31.482C572.889,779.168,558.795,765.069,558.795,747.686z"/>
	<path fill="#4390BB" d="M794.907,668.982c0-17.388,14.093-31.482,31.48-31.482c17.389,0,31.484,14.095,31.484,31.482
		c0,17.383-14.095,31.483-31.484,31.483C809,700.465,794.907,686.366,794.907,668.982z"/>
	<path fill="#3E64AE" d="M873.61,747.686c0-17.385,14.093-31.479,31.479-31.479c17.391,0,31.484,14.095,31.484,31.479
		c0,17.386-14.093,31.482-31.484,31.482C887.704,779.168,873.61,765.072,873.61,747.686z"/>
	<path fill="#163157" d="M558.797,905.093c0-17.382,14.095-31.477,31.481-31.477c17.386,0,31.481,14.095,31.481,31.477
		c0,17.388-14.095,31.482-31.481,31.482C572.893,936.575,558.797,922.48,558.797,905.093z"/>
	<path fill="#2E93B2" d="M637.499,905.093c0-17.382,14.096-31.477,31.481-31.477c17.388,0,31.483,14.095,31.483,31.477
		c0,17.388-14.095,31.482-31.483,31.482C651.595,936.575,637.499,922.48,637.499,905.093z"/>
	<path fill="#AF915E" d="M716.205,905.093c0-17.382,14.095-31.477,31.481-31.477s31.479,14.095,31.479,31.477
		c0,17.388-14.093,31.482-31.479,31.482S716.205,922.48,716.205,905.093z"/>
	<path fill="#AF915E" d="M794.908,905.093c0-17.382,14.093-31.477,31.479-31.477c17.386,0,31.479,14.095,31.479,31.477
		c0,17.388-14.093,31.482-31.479,31.482C809.001,936.575,794.908,922.48,794.908,905.093z"/>
	<path fill="#9F4954" d="M794.908,826.393c0-17.391,14.093-31.482,31.479-31.482c17.386,0,31.487,14.091,31.487,31.482
		c0,17.388-14.101,31.482-31.487,31.482C809.001,857.875,794.908,843.78,794.908,826.393z"/>
	<rect x="472.223" y="472.224" fill="#171016" width="0" height="0"/>
	<path fill="#60A2D8" d="M480.092,668.985c0-17.388,14.096-31.482,31.482-31.482c17.387,0,31.482,14.095,31.482,31.482
		c0,17.384-14.095,31.48-31.482,31.48C494.188,700.465,480.092,686.369,480.092,668.985z"/>
	<path fill="#95CA65" d="M952.317,39.355c0-17.386,14.095-31.483,31.477-31.483c17.388,0,31.482,14.097,31.482,31.483
		c0,17.386-14.095,31.481-31.482,31.481C966.412,70.836,952.317,56.741,952.317,39.355z"/>
	<circle fill="#6DABDD" cx="1062.5" cy="39.355" r="31.482"/>
	<circle fill="#3BA9CD" cx="1377.314" cy="354.167" r="31.483"/>
	<circle fill="#3BA9CD" cx="1534.721" cy="196.76" r="31.482"/>
	<path fill="#6DABDD" d="M1818.061,118.058c0-17.387,14.091-31.482,31.475-31.482c17.388,0,31.486,14.095,31.486,31.482
		c0,17.385-14.099,31.479-31.486,31.479C1832.151,149.538,1818.061,135.443,1818.061,118.058z"/>
	<path fill="#34449B" d="M1109.724,39.355c0-17.386,14.096-31.483,31.477-31.483c17.388,0,31.482,14.097,31.482,31.483
		c0,17.386-14.095,31.481-31.482,31.481C1123.819,70.836,1109.724,56.741,1109.724,39.355z"/>
	<path fill="#3D8E60" d="M952.317,118.058c0-17.387,14.095-31.482,31.477-31.482c17.388,0,31.482,14.095,31.482,31.482
		c0,17.385-14.095,31.479-31.482,31.479C966.412,149.538,952.317,135.443,952.317,118.058z"/>
	<circle fill="#4390BB" cx="1062.5" cy="118.058" r="31.482"/>
	<circle fill="#3BA9CD" cx="1377.314" cy="39.353" r="31.483"/>
	<circle fill="#296F8C" cx="1377.314" cy="118.057" r="31.483"/>
	<path fill="#296F8C" d="M1189.998,44.077c0-17.388,14.096-31.483,31.484-31.483c17.384,0,31.479,14.095,31.479,31.483
		c0,17.384-14.095,31.48-31.479,31.48C1204.094,75.557,1189.998,61.46,1189.998,44.077z"/>
	<path fill="#3A54A4" d="M1109.724,118.058c0-17.387,14.096-31.482,31.477-31.482c17.388,0,31.482,14.095,31.482,31.482
		c0,17.385-14.095,31.479-31.482,31.479C1123.819,149.538,1109.724,135.443,1109.724,118.058z"/>
	<circle fill="#234093" cx="1219.907" cy="118.058" r="31.483"/>
	<circle fill="#234093" cx="1298.612" cy="196.76" r="31.481"/>
	<circle fill="#234093" cx="1377.314" cy="432.872" r="31.483"/>
	<path fill="#234093" d="M1267.131,118.058c0-17.387,14.096-31.482,31.477-31.482c17.388,0,31.482,14.095,31.482,31.482
		c0,17.385-14.095,31.479-31.482,31.479C1281.227,149.538,1267.131,135.443,1267.131,118.058z"/>
	<circle fill="#293992" cx="1298.612" cy="39.353" r="31.481"/>
	<circle fill="#2A3881" cx="983.795" cy="196.763" r="31.481"/>
	<circle fill="#9F4954" cx="1062.5" cy="196.763" r="31.482"/>
	<circle fill="#3E64AE" cx="1141.202" cy="196.763" r="31.481"/>
	<path fill="#026085" d="M1188.424,196.763c0-17.386,14.095-31.483,31.483-31.483c17.384,0,31.482,14.097,31.482,31.483
		c0,17.385-14.099,31.48-31.482,31.48C1202.519,228.243,1188.424,214.148,1188.424,196.763z"/>
	<path fill="#2650A2" d="M952.314,275.465c0-17.388,14.095-31.483,31.479-31.483c17.388,0,31.482,14.095,31.482,31.483
		c0,17.385-14.095,31.479-31.482,31.479C966.409,306.945,952.314,292.85,952.314,275.465z"/>
	<path fill="#2E4098" d="M1031.018,275.465c0-17.388,14.094-31.483,31.482-31.483c17.385,0,31.482,14.095,31.482,31.483
		c0,17.385-14.098,31.479-31.482,31.479C1045.111,306.945,1031.018,292.85,1031.018,275.465z"/>
	<path fill="#AF915E" d="M1109.721,275.465c0-17.388,14.095-31.483,31.479-31.483c17.388,0,31.482,14.095,31.482,31.483
		c0,17.385-14.095,31.479-31.482,31.479C1123.815,306.945,1109.721,292.85,1109.721,275.465z"/>
	<path fill="#5B3E7B" d="M952.317,354.172c0-17.388,14.095-31.484,31.477-31.484c17.388,0,31.482,14.096,31.482,31.484
		c0,17.385-14.095,31.479-31.482,31.479C966.412,385.651,952.317,371.557,952.317,354.172z"/>
	<path fill="#2E93B2" d="M1031.018,354.172c0-17.388,14.094-31.484,31.482-31.484s31.482,14.096,31.482,31.484
		c0,17.385-14.094,31.479-31.482,31.479S1031.018,371.557,1031.018,354.172z"/>
	<path fill="#387FA5" d="M1109.724,354.172c0-17.388,14.096-31.484,31.477-31.484c17.388,0,31.482,14.096,31.482,31.484
		c0,17.385-14.095,31.479-31.482,31.479C1123.819,385.651,1109.724,371.557,1109.724,354.172z"/>
	<path fill="#41A7D9" d="M1188.424,354.172c0-17.388,14.095-31.484,31.483-31.484c17.388,0,31.482,14.096,31.482,31.484
		c0,17.385-14.095,31.479-31.482,31.479C1202.519,385.651,1188.424,371.557,1188.424,354.172z"/>
	<path fill="#1D3F75" d="M952.317,432.872c0-17.385,14.095-31.481,31.477-31.481c17.388,0,31.482,14.096,31.482,31.481
		c0,17.386-14.095,31.481-31.482,31.481C966.412,464.353,952.317,450.258,952.317,432.872z"/>
	<circle fill="#1E4495" cx="1377.314" cy="196.763" r="31.483"/>
	<path fill="#3B5FA5" d="M1345.831,275.465c0-17.388,14.095-31.483,31.482-31.483c17.389,0,31.483,14.095,31.483,31.483
		c0,17.385-14.095,31.479-31.483,31.479C1359.926,306.945,1345.831,292.85,1345.831,275.465z"/>
	<circle fill="#28387F" cx="1062.5" cy="432.872" r="31.482"/>
	<path fill="#3757A6" d="M1109.724,432.872c0-17.385,14.096-31.481,31.477-31.481c17.388,0,31.482,14.096,31.482,31.481
		c0,17.386-14.095,31.481-31.482,31.481C1123.819,464.353,1109.724,450.258,1109.724,432.872z"/>
	<circle fill="#994E8F" cx="1219.907" cy="432.872" r="31.483"/>
	<path fill="#994E8F" d="M1267.131,432.872c0-17.385,14.096-31.481,31.477-31.481c17.388,0,31.482,14.096,31.482,31.481
		c0,17.386-14.095,31.481-31.482,31.481C1281.227,464.353,1267.131,450.258,1267.131,432.872z"/>
	<circle fill="#208AB4" cx="1298.612" cy="354.168" r="31.481"/>
	<rect x="944.443" y="0.001" fill="#1F181F" width="0" height="0"/>
	<circle fill="#3B5FA5" cx="1456.019" cy="39.355" r="31.481"/>
	<path fill="#293992" d="M1503.241,39.355c0-17.386,14.097-31.483,31.479-31.483c17.389,0,31.482,14.097,31.482,31.483
		c0,17.386-14.094,31.481-31.482,31.481C1517.338,70.836,1503.241,56.741,1503.241,39.355z"/>
	<path fill="#34449B" d="M1581.944,39.355c0-17.386,14.097-31.483,31.479-31.483c17.389,0,31.483,14.097,31.483,31.483
		c0,17.386-14.095,31.481-31.483,31.481C1596.041,70.836,1581.944,56.741,1581.944,39.355z"/>
	<circle fill="#2E93B2" cx="1692.129" cy="39.355" r="31.481"/>
	<circle fill="#554F87" cx="1456.019" cy="118.058" r="31.481"/>
	<circle fill="#034C6A" cx="1849.536" cy="39.353" r="31.484"/>
	<path fill="#3A54A4" d="M1581.944,118.058c0-17.387,14.097-31.482,31.479-31.482c17.389,0,31.483,14.095,31.483,31.482
		c0,17.385-14.095,31.479-31.483,31.479C1596.041,149.538,1581.944,135.443,1581.944,118.058z"/>
	<circle fill="#28387F" cx="1692.129" cy="118.058" r="31.481"/>
	<path fill="#0C6181" d="M1267.131,275.465c0-17.388,14.096-31.483,31.479-31.483c17.389,0,31.479,14.095,31.479,31.483
		c0,17.385-14.091,31.479-31.479,31.479C1281.227,306.945,1267.131,292.85,1267.131,275.465z"/>
	<circle fill="#2E93B2" cx="1849.536" cy="354.168" r="31.484"/>
	<circle fill="#28387F" cx="1849.536" cy="432.872" r="31.484"/>
	<path fill="#28387F" d="M1739.352,118.058c0-17.387,14.097-31.482,31.479-31.482c17.385,0,31.479,14.095,31.479,31.482
		c0,17.385-14.095,31.479-31.479,31.479C1753.448,149.538,1739.352,135.443,1739.352,118.058z"/>
	<path fill="#2A3881" d="M1739.352,39.353c0-17.386,14.097-31.481,31.479-31.481c17.385,0,31.487,14.095,31.487,31.481
		c0,17.387-14.103,31.481-31.487,31.481C1753.448,70.834,1739.352,56.74,1739.352,39.353z"/>
	<path fill="#171016" d="M1424.538,196.763c0-17.386,14.096-31.483,31.477-31.483c17.387,0,31.482,14.097,31.482,31.483
		c0,17.385-14.096,31.48-31.482,31.48C1438.634,228.243,1424.538,214.148,1424.538,196.763z"/>
	<path fill="#2E4098" d="M1581.944,196.763c0-17.386,14.097-31.483,31.477-31.483c17.388,0,31.483,14.097,31.483,31.483
		c0,17.385-14.096,31.48-31.483,31.48C1596.041,228.243,1581.944,214.148,1581.944,196.763z"/>
	<circle fill="#9F4954" cx="1692.128" cy="196.763" r="31.482"/>
	<path fill="#1E4495" d="M1424.538,275.465c0-17.388,14.096-31.483,31.477-31.483c17.387,0,31.482,14.095,31.482,31.483
		c0,17.385-14.096,31.479-31.482,31.479C1438.634,306.945,1424.538,292.85,1424.538,275.465z"/>
	<path fill="#026085" d="M1503.238,275.465c0-17.388,14.094-31.483,31.482-31.483s31.482,14.095,31.482,31.483
		c0,17.385-14.094,31.479-31.482,31.479S1503.238,292.85,1503.238,275.465z"/>
	<path fill="#4C73B7" d="M1581.944,275.465c0-17.388,14.097-31.483,31.477-31.483c17.388,0,31.483,14.095,31.483,31.483
		c0,17.385-14.096,31.479-31.483,31.479C1596.041,306.945,1581.944,292.85,1581.944,275.465z"/>
	<path fill="#3E64AE" d="M1660.646,275.465c0-17.388,14.096-31.483,31.482-31.483c17.389,0,31.482,14.095,31.482,31.483
		c0,17.385-14.094,31.479-31.482,31.479C1674.741,306.945,1660.646,292.85,1660.646,275.465z"/>
	<path fill="#3E64AE" d="M1739.346,275.465c0-17.388,14.103-31.483,31.485-31.483c17.385,0,31.479,14.095,31.479,31.483
		c0,17.385-14.095,31.479-31.479,31.479C1753.448,306.945,1739.346,292.85,1739.346,275.465z"/>
	<path fill="#387FA5" d="M1739.352,196.76c0-17.386,14.097-31.481,31.479-31.481c17.385,0,31.479,14.095,31.479,31.481
		c0,17.386-14.095,31.481-31.479,31.481C1753.448,228.241,1739.352,214.146,1739.352,196.76z"/>
	<path fill="#296F8C" d="M1424.538,354.172c0-17.388,14.096-31.484,31.479-31.484c17.389,0,31.482,14.096,31.482,31.484
		c0,17.385-14.094,31.479-31.482,31.479C1438.634,385.651,1424.538,371.557,1424.538,354.172z"/>
	<circle fill="#296F8C" cx="1534.721" cy="125.927" r="31.482"/>
	<circle fill="#4390BB" cx="1849.536" cy="590.279" r="31.484"/>
	<path fill="#3BA9CD" d="M1503.241,354.172c0-17.388,14.097-31.484,31.479-31.484c17.389,0,31.482,14.096,31.482,31.484
		c0,17.385-14.094,31.479-31.482,31.479C1517.338,385.651,1503.241,371.557,1503.241,354.172z"/>
	<path fill="#1C449B" d="M1581.944,354.172c0-17.388,14.097-31.484,31.479-31.484c17.389,0,31.483,14.096,31.483,31.484
		c0,17.385-14.095,31.479-31.483,31.479C1596.041,385.651,1581.944,371.557,1581.944,354.172z"/>
	<path fill="#3D8E60" d="M1660.648,354.172c0-17.388,14.096-31.484,31.479-31.484c17.389,0,31.482,14.096,31.482,31.484
		c0,17.385-14.094,31.479-31.482,31.479C1674.744,385.651,1660.648,371.557,1660.648,354.172z"/>
	<circle fill="#208AB4" cx="1456.019" cy="432.872" r="31.481"/>
	<circle fill="#4390BB" cx="1849.536" cy="196.763" r="31.484"/>
	<path fill="#286197" d="M1818.052,275.465c0-17.388,14.097-31.483,31.483-31.483c17.388,0,31.484,14.095,31.484,31.483
		c0,17.385-14.097,31.479-31.484,31.479C1832.148,306.945,1818.052,292.85,1818.052,275.465z"/>
	<path fill="#3757A6" d="M1581.944,432.872c0-17.385,14.097-31.481,31.479-31.481c17.389,0,31.483,14.096,31.483,31.481
		c0,17.386-14.095,31.481-31.483,31.481C1596.041,464.353,1581.944,450.258,1581.944,432.872z"/>
	<circle fill="#253D8A" cx="1692.129" cy="432.872" r="31.481"/>
	<path fill="#253D8A" d="M1739.352,432.872c0-17.385,14.097-31.481,31.479-31.481c17.385,0,31.479,14.096,31.479,31.481
		c0,17.386-14.095,31.481-31.479,31.481C1753.448,464.353,1739.352,450.258,1739.352,432.872z"/>
	<path fill="#95CA65" d="M1739.352,354.168c0-17.385,14.097-31.482,31.479-31.482c17.385,0,31.487,14.098,31.487,31.482
		c0,17.387-14.103,31.481-31.487,31.481C1753.448,385.65,1739.352,371.555,1739.352,354.168z"/>
	<rect x="1416.667" y="0.001" fill="#171016" width="0" height="0"/>
	<circle fill="#60A2D8" cx="1456.019" cy="196.76" r="31.481"/>
	<path fill="#9F4954" d="M952.317,511.58c0-17.388,14.095-31.482,31.477-31.482c17.388,0,31.482,14.095,31.482,31.482
		c0,17.385-14.095,31.481-31.482,31.481C966.412,543.061,952.317,528.965,952.317,511.58z"/>
	<circle fill="#4C73B7" cx="1062.5" cy="511.58" r="31.482"/>
	<path fill="#286197" d="M1109.724,511.58c0-17.388,14.096-31.482,31.477-31.482c17.388,0,31.482,14.095,31.482,31.482
		c0,17.385-14.095,31.481-31.482,31.481C1123.819,543.061,1109.724,528.965,1109.724,511.58z"/>
	<circle fill="#3B5FA5" cx="1219.907" cy="511.58" r="31.483"/>
	<path fill="#3757A6" d="M952.317,590.282c0-17.385,14.095-31.479,31.477-31.479c17.388,0,31.482,14.095,31.482,31.479
		c0,17.383-14.095,31.479-31.482,31.479C966.412,621.762,952.317,607.666,952.317,590.282z"/>
	<circle fill="#4390BB" cx="1062.5" cy="590.282" r="31.482"/>
	<circle fill="#994E8F" cx="1377.314" cy="511.579" r="31.483"/>
	<circle fill="#296F8C" cx="1377.314" cy="590.279" r="31.483"/>
	<path fill="#296F8C" d="M1188.424,668.985c0-17.388,14.095-31.482,31.483-31.482c17.388,0,31.482,14.095,31.482,31.482
		c0,17.384-14.095,31.48-31.482,31.48C1202.519,700.465,1188.424,686.369,1188.424,668.985z"/>
	<path fill="#296F8C" d="M1188.424,275.465c0-17.388,14.095-31.483,31.483-31.483c17.388,0,31.482,14.095,31.482,31.483
		c0,17.385-14.095,31.479-31.482,31.479C1202.519,306.945,1188.424,292.85,1188.424,275.465z"/>
	<path fill="#3A54A4" d="M1109.724,590.282c0-17.385,14.096-31.479,31.477-31.479c17.388,0,31.482,14.095,31.482,31.479
		c0,17.383-14.095,31.479-31.482,31.479C1123.819,621.762,1109.724,607.666,1109.724,590.282z"/>
	<circle fill="#1E4495" cx="1219.907" cy="590.282" r="31.483"/>
	<path fill="#3B5FA5" d="M1345.831,826.396c0-17.391,14.095-31.485,31.482-31.485c17.389,0,31.483,14.095,31.483,31.485
		c0,17.385-14.095,31.479-31.483,31.479C1359.926,857.875,1345.831,843.78,1345.831,826.396z"/>
	<path fill="#1E4495" d="M1345.831,905.096c0-17.385,14.095-31.485,31.482-31.485c17.389,0,31.483,14.101,31.483,31.485
		s-14.095,31.479-31.483,31.479C1359.926,936.575,1345.831,922.48,1345.831,905.096z"/>
	<path fill="#1E4495" d="M1267.131,590.282c0-17.385,14.096-31.479,31.477-31.479c17.388,0,31.482,14.095,31.482,31.479
		c0,17.383-14.095,31.479-31.482,31.479C1281.227,621.762,1267.131,607.666,1267.131,590.282z"/>
	<circle fill="#293992" cx="1298.612" cy="511.579" r="31.481"/>
	<circle fill="#2A3881" cx="983.795" cy="668.985" r="31.481"/>
	<circle fill="#6DABDD" cx="1062.5" cy="668.985" r="31.482"/>
	<circle fill="#387FA5" cx="1141.202" cy="668.985" r="31.481"/>
	<circle fill="#2650A2" cx="983.795" cy="747.689" r="31.481"/>
	<circle fill="#28387F" cx="1062.5" cy="747.689" r="31.482"/>
	<circle fill="#0C6181" cx="1534.721" cy="590.279" r="31.482"/>
	<circle fill="#0C6181" cx="1219.907" cy="747.686" r="31.483"/>
	<circle fill="#95CA65" cx="1141.202" cy="747.689" r="31.481"/>
	<path fill="#0C84B9" d="M1267.131,668.985c0-17.388,14.096-31.482,31.477-31.482c17.388,0,31.482,14.095,31.482,31.482
		c0,17.388-14.095,31.483-31.482,31.483C1281.227,700.468,1267.131,686.374,1267.131,668.985z"/>
	<path fill="#1C449B" d="M952.317,826.396c0-17.385,14.095-31.485,31.477-31.485c17.388,0,31.482,14.101,31.482,31.485
		s-14.095,31.479-31.482,31.479C966.412,857.875,952.317,843.78,952.317,826.396z"/>
	<path fill="#253D8A" d="M1031.018,826.396c0-17.385,14.094-31.485,31.482-31.485s31.482,14.101,31.482,31.485
		s-14.094,31.479-31.482,31.479S1031.018,843.78,1031.018,826.396z"/>
	<path fill="#171016" d="M1188.424,826.396c0-17.385,14.095-31.485,31.483-31.485c17.388,0,31.482,14.101,31.482,31.485
		s-14.095,31.479-31.482,31.479C1202.519,857.875,1188.424,843.78,1188.424,826.396z"/>
	<path fill="#263D84" d="M952.317,905.096c0-17.385,14.095-31.479,31.477-31.479c17.388,0,31.482,14.095,31.482,31.479
		s-14.095,31.479-31.482,31.479C966.412,936.575,952.317,922.48,952.317,905.096z"/>
	<circle fill="#234093" cx="1377.314" cy="668.985" r="31.483"/>
	<circle fill="#026085" cx="1377.314" cy="747.689" r="31.483"/>
	<circle fill="#3D8E60" cx="1062.5" cy="905.096" r="31.482"/>
	<path fill="#2E93B2" d="M1109.724,905.096c0-17.385,14.096-31.479,31.477-31.479c17.388,0,31.482,14.095,31.482,31.479
		s-14.095,31.479-31.482,31.479C1123.819,936.575,1109.724,922.48,1109.724,905.096z"/>
	<circle fill="#A3654C" cx="1219.907" cy="905.096" r="31.483"/>
	<path fill="#A3654C" d="M1267.131,905.096c0-17.385,14.096-31.479,31.477-31.479c17.388,0,31.482,14.095,31.482,31.479
		s-14.095,31.479-31.482,31.479C1281.227,936.575,1267.131,922.48,1267.131,905.096z"/>
	<path fill="#0074A1" d="M1267.131,826.396c0-17.391,14.096-31.485,31.479-31.485c17.389,0,31.482,14.095,31.482,31.485
		c0,17.385-14.094,31.479-31.482,31.479C1281.227,857.875,1267.131,843.78,1267.131,826.396z"/>
	<rect x="944.443" y="472.227" fill="#1F181F" width="0" height="0"/>
	<circle fill="#026085" cx="1456.019" cy="511.58" r="31.481"/>
	<path fill="#293992" d="M1503.241,511.58c0-17.388,14.097-31.482,31.479-31.482c17.389,0,31.482,14.095,31.482,31.482
		c0,17.385-14.094,31.481-31.482,31.481C1517.338,543.061,1503.241,528.965,1503.241,511.58z"/>
	<path fill="#286197" d="M1581.944,511.58c0-17.388,14.097-31.482,31.479-31.482c17.389,0,31.483,14.095,31.483,31.482
		c0,17.385-14.095,31.481-31.483,31.481C1596.041,543.061,1581.944,528.965,1581.944,511.58z"/>
	<circle fill="#253D8A" cx="1692.129" cy="511.58" r="31.481"/>
	<circle fill="#554F87" cx="1456.019" cy="590.282" r="31.481"/>
	<circle fill="#034C6A" cx="1849.536" cy="511.579" r="31.484"/>
	<path fill="#034C6A" d="M1504.813,428.15c0-17.388,14.093-31.483,31.475-31.483c17.396,0,31.488,14.095,31.488,31.483
		c0,17.386-14.092,31.481-31.488,31.481C1518.906,459.631,1504.813,445.536,1504.813,428.15z"/>
	<path fill="#3A54A4" d="M1581.944,590.282c0-17.385,14.097-31.479,31.479-31.479c17.389,0,31.483,14.095,31.483,31.479
		c0,17.383-14.095,31.479-31.483,31.479C1596.041,621.762,1581.944,607.666,1581.944,590.282z"/>
	<circle fill="#3D8E60" cx="1692.129" cy="590.282" r="31.481"/>
	<path fill="#253D8A" d="M1818.052,826.396c0-17.391,14.097-31.485,31.483-31.485c17.388,0,31.484,14.095,31.484,31.485
		c0,17.385-14.097,31.479-31.484,31.479C1832.148,857.875,1818.052,843.78,1818.052,826.396z"/>
	<path fill="#3D8E60" d="M1818.052,905.096c0-17.385,14.097-31.485,31.483-31.485c17.388,0,31.484,14.101,31.484,31.485
		s-14.097,31.479-31.484,31.479C1832.148,936.575,1818.052,922.48,1818.052,905.096z"/>
	<path fill="#3D8E60" d="M1739.352,590.282c0-17.385,14.097-31.479,31.479-31.479c17.385,0,31.479,14.095,31.479,31.479
		c0,17.383-14.095,31.479-31.479,31.479C1753.448,621.762,1739.352,607.666,1739.352,590.282z"/>
	<path fill="#2A3881" d="M1739.352,511.579c0-17.388,14.097-31.482,31.479-31.482c17.385,0,31.487,14.095,31.487,31.482
		c0,17.386-14.103,31.482-31.487,31.482C1753.448,543.061,1739.352,528.965,1739.352,511.579z"/>
	<path fill="#171016" d="M1424.538,668.985c0-17.388,14.096-31.482,31.477-31.482c17.387,0,31.482,14.095,31.482,31.482
		c0,17.388-14.096,31.483-31.482,31.483C1438.634,700.468,1424.538,686.374,1424.538,668.985z"/>
	<circle fill="#0C84B9" cx="1534.721" cy="668.985" r="31.482"/>
	<path fill="#28387F" d="M1581.944,668.985c0-17.388,14.097-31.482,31.477-31.482c17.388,0,31.483,14.095,31.483,31.482
		c0,17.388-14.096,31.483-31.483,31.483C1596.041,700.468,1581.944,686.374,1581.944,668.985z"/>
	<circle fill="#6DABDD" cx="1692.128" cy="668.985" r="31.482"/>
	<path fill="#234093" d="M1424.538,747.689c0-17.385,14.096-31.479,31.477-31.479c17.387,0,31.482,14.095,31.482,31.479
		c0,17.383-14.096,31.479-31.482,31.479C1438.634,779.168,1424.538,765.072,1424.538,747.689z"/>
	<path fill="#2E4098" d="M1581.944,747.689c0-17.385,14.097-31.479,31.477-31.479c17.388,0,31.483,14.095,31.483,31.479
		c0,17.383-14.096,31.479-31.483,31.479C1596.041,779.168,1581.944,765.072,1581.944,747.689z"/>
	<circle fill="#387FA5" cx="1692.128" cy="747.689" r="31.482"/>
	<path fill="#387FA5" d="M1739.346,747.689c0-17.385,14.103-31.479,31.485-31.479c17.385,0,31.479,14.095,31.479,31.479
		c0,17.383-14.095,31.479-31.479,31.479C1753.448,779.168,1739.346,765.072,1739.346,747.689z"/>
	<path fill="#296F8C" d="M1424.538,826.396c0-17.385,14.096-31.485,31.479-31.485c17.389,0,31.482,14.101,31.482,31.485
		s-14.094,31.479-31.482,31.479C1438.634,857.875,1424.538,843.78,1424.538,826.396z"/>
	<path fill="#994E8F" d="M1503.241,826.396c0-17.385,14.097-31.485,31.479-31.485c17.389,0,31.482,14.101,31.482,31.485
		s-14.094,31.479-31.482,31.479C1517.338,857.875,1503.241,843.78,1503.241,826.396z"/>
	<path fill="#5B3E7B" d="M1581.944,826.396c0-17.385,14.097-31.485,31.479-31.485c17.389,0,31.483,14.101,31.483,31.485
		s-14.095,31.479-31.483,31.479C1596.041,857.875,1581.944,843.78,1581.944,826.396z"/>
	<path fill="#3757A6" d="M1660.648,826.396c0-17.385,14.096-31.485,31.479-31.485c17.389,0,31.482,14.101,31.482,31.485
		s-14.094,31.479-31.482,31.479C1674.744,857.875,1660.648,843.78,1660.648,826.396z"/>
	<circle fill="#0074A1" cx="1456.019" cy="905.096" r="31.481"/>
	<circle fill="#4390BB" cx="1849.536" cy="668.985" r="31.484"/>
	<path fill="#4390BB" d="M1189.998,827.96c0-17.388,14.096-31.482,31.48-31.482c17.391,0,31.486,14.095,31.486,31.482
		c0,17.388-14.096,31.483-31.486,31.483C1204.094,859.443,1189.998,845.349,1189.998,827.96z"/>
	<path fill="#296F8C" d="M1267.128,747.686c0-17.388,14.092-31.482,31.479-31.482c17.392,0,31.482,14.095,31.482,31.482
		c0,17.386-14.091,31.482-31.482,31.482C1281.22,779.168,1267.128,765.072,1267.128,747.686z"/>
	<path fill="#4390BB" d="M1109.721,826.39c0-17.388,14.093-31.479,31.479-31.479c17.392,0,31.482,14.091,31.482,31.479
		c0,17.383-14.091,31.482-31.482,31.482C1123.813,857.872,1109.721,843.773,1109.721,826.39z"/>
	<circle fill="#296F8C" cx="1534.721" cy="747.686" r="31.482"/>
	<path fill="#4390BB" d="M1739.352,668.985c0-17.388,14.094-31.482,31.477-31.482c17.396,0,31.485,14.095,31.485,31.482
		c0,17.384-14.09,31.483-31.485,31.483C1753.445,700.468,1739.352,686.369,1739.352,668.985z"/>
	<circle fill="#3E64AE" cx="1849.536" cy="747.689" r="31.484"/>
	<path fill="#163157" d="M1503.241,905.096c0-17.385,14.097-31.479,31.479-31.479c17.389,0,31.482,14.095,31.482,31.479
		s-14.094,31.479-31.482,31.479C1517.338,936.575,1503.241,922.48,1503.241,905.096z"/>
	<path fill="#2E93B2" d="M1581.944,905.096c0-17.385,14.097-31.479,31.479-31.479c17.389,0,31.483,14.095,31.483,31.479
		s-14.095,31.479-31.483,31.479C1596.041,936.575,1581.944,922.48,1581.944,905.096z"/>
	<circle fill="#AF915E" cx="1692.129" cy="905.096" r="31.481"/>
	<path fill="#AF915E" d="M1739.352,905.096c0-17.385,14.097-31.479,31.479-31.479c17.385,0,31.479,14.095,31.479,31.479
		s-14.095,31.479-31.479,31.479C1753.448,936.575,1739.352,922.48,1739.352,905.096z"/>
	<path fill="#9F4954" d="M1739.352,826.396c0-17.391,14.097-31.485,31.479-31.485c17.385,0,31.487,14.095,31.487,31.485
		c0,17.385-14.103,31.479-31.487,31.479C1753.448,857.875,1739.352,843.78,1739.352,826.396z"/>
	<rect x="1416.667" y="472.227" fill="#171016" width="0" height="0"/>
	<circle fill="#60A2D8" cx="1456.019" cy="668.985" r="31.481"/>
	<path fill="#95CA65" d="M7.872,983.8c0-17.388,14.095-31.483,31.479-31.483c17.388,0,31.483,14.096,31.483,31.483
		c0,17.38-14.095,31.477-31.483,31.477C21.967,1015.276,7.872,1001.18,7.872,983.8z"/>
	<path fill="#6DABDD" d="M86.577,983.8c0-17.388,14.094-31.483,31.48-31.483c17.386,0,31.482,14.096,31.482,31.483
		c0,17.38-14.096,31.477-31.482,31.477C100.671,1015.276,86.577,1001.18,86.577,983.8z"/>
	<path fill="#34449B" d="M165.28,983.8c0-17.388,14.094-31.483,31.479-31.483c17.387,0,31.482,14.096,31.482,31.483
		c0,17.38-14.096,31.477-31.482,31.477C179.375,1015.276,165.28,1001.18,165.28,983.8z"/>
	<path fill="#3BA9CD" d="M401.391,983.793c0-17.381,14.094-31.477,31.48-31.477s31.481,14.096,31.481,31.477
		c0,17.387-14.095,31.483-31.481,31.483S401.391,1001.18,401.391,983.793z"/>
	<path fill="#296F8C" d="M245.557,988.518c0-17.389,14.095-31.479,31.481-31.479c17.386,0,31.481,14.091,31.481,31.479
		S294.423,1020,277.038,1020C259.651,1020,245.557,1005.906,245.557,988.518z"/>
	<path fill="#293992" d="M322.687,983.793c0-17.381,14.096-31.477,31.48-31.477c17.389,0,31.483,14.096,31.483,31.477
		c0,17.387-14.094,31.483-31.483,31.483C336.783,1015.276,322.687,1001.18,322.687,983.793z"/>
	<rect x="0.001" y="944.445" fill="#1F181F" width="0" height="0"/>
	<path fill="#3B5FA5" d="M480.094,983.8c0-17.388,14.095-31.483,31.48-31.483c17.388,0,31.482,14.096,31.482,31.483
		c0,17.38-14.094,31.477-31.482,31.477C494.189,1015.276,480.094,1001.18,480.094,983.8z"/>
	<path fill="#293992" d="M558.798,983.8c0-17.388,14.096-31.483,31.482-31.483s31.48,14.096,31.48,31.483
		c0,17.38-14.094,31.477-31.48,31.477S558.798,1001.18,558.798,983.8z"/>
	<path fill="#34449B" d="M637.501,983.8c0-17.388,14.095-31.483,31.48-31.483c17.389,0,31.484,14.096,31.484,31.483
		c0,17.38-14.095,31.477-31.484,31.477C651.596,1015.276,637.501,1001.18,637.501,983.8z"/>
	<path fill="#2E93B2" d="M716.207,983.8c0-17.388,14.095-31.483,31.481-31.483c17.385,0,31.479,14.096,31.479,31.483
		c0,17.38-14.095,31.477-31.479,31.477C730.301,1015.276,716.207,1001.18,716.207,983.8z"/>
	<path fill="#034C6A" d="M873.612,983.793c0-17.381,14.093-31.477,31.479-31.477c17.391,0,31.484,14.096,31.484,31.477
		c0,17.387-14.093,31.483-31.484,31.483C887.705,1015.276,873.612,1001.18,873.612,983.793z"/>
	<path fill="#2A3881" d="M794.91,983.793c0-17.381,14.093-31.477,31.479-31.477c17.386,0,31.485,14.096,31.485,31.477
		c0,17.387-14.099,31.483-31.485,31.483C809.003,1015.276,794.91,1001.18,794.91,983.793z"/>
	<rect x="472.225" y="944.445" fill="#171016" width="0" height="0"/>
	<path fill="#95CA65" d="M952.317,983.8c0-17.388,14.095-31.479,31.477-31.479c17.388,0,31.482,14.092,31.482,31.479
		c0,17.387-14.095,31.482-31.482,31.482C966.412,1015.282,952.317,1001.187,952.317,983.8z"/>
	<circle fill="#6DABDD" cx="1062.5" cy="983.8" r="31.482"/>
	<path fill="#34449B" d="M1109.724,983.8c0-17.388,14.096-31.479,31.477-31.479c17.388,0,31.482,14.092,31.482,31.479
		c0,17.387-14.095,31.482-31.482,31.482C1123.819,1015.282,1109.724,1001.187,1109.724,983.8z"/>
	<path fill="#3BA9CD" d="M1345.831,983.8c0-17.388,14.095-31.479,31.482-31.479c17.389,0,31.483,14.092,31.483,31.479
		c0,17.38-14.095,31.477-31.483,31.477C1359.926,1015.276,1345.831,1001.18,1345.831,983.8z"/>
	<path fill="#296F8C" d="M1189.998,988.518c0-17.389,14.096-31.479,31.484-31.479c17.387,0,31.482,14.091,31.482,31.479
		S1238.869,1020,1221.482,1020C1204.094,1020,1189.998,1005.906,1189.998,988.518z"/>
	<path fill="#293992" d="M1267.131,983.8c0-17.388,14.096-31.479,31.482-31.479c17.388,0,31.482,14.092,31.482,31.479
		c0,17.38-14.095,31.477-31.482,31.477C1281.227,1015.276,1267.131,1001.18,1267.131,983.8z"/>
	<rect x="944.443" y="944.445" fill="#1F181F" width="0" height="0"/>
	<circle fill="#3B5FA5" cx="1456.021" cy="983.8" r="31.482"/>
	<path fill="#293992" d="M1503.244,983.8c0-17.388,14.097-31.479,31.477-31.479c17.389,0,31.482,14.092,31.482,31.479
		c0,17.387-14.094,31.482-31.482,31.482C1517.341,1015.282,1503.244,1001.187,1503.244,983.8z"/>
	<circle fill="#34449B" cx="1613.428" cy="983.8" r="31.483"/>
	<path fill="#2E93B2" d="M1660.653,983.8c0-17.388,14.094-31.479,31.475-31.479c17.389,0,31.482,14.092,31.482,31.479
		c0,17.387-14.094,31.482-31.482,31.482C1674.747,1015.282,1660.653,1001.187,1660.653,983.8z"/>
	<path fill="#034C6A" d="M1818.052,983.8c0-17.388,14.097-31.479,31.483-31.479c17.388,0,31.484,14.092,31.484,31.479
		c0,17.38-14.097,31.477-31.484,31.477C1832.148,1015.276,1818.052,1001.18,1818.052,983.8z"/>
	<path fill="#2A3881" d="M1739.352,983.8c0-17.388,14.097-31.479,31.483-31.479c17.381,0,31.483,14.092,31.483,31.479
		c0,17.38-14.103,31.477-31.483,31.477C1753.448,1015.276,1739.352,1001.18,1739.352,983.8z"/>
	<rect x="1416.671" y="944.445" fill="#171016" width="0" height="0"/>
	<g>
		<path fill="#95CA65" d="M1898.331,39.353c0-17.386,14.097-31.482,31.479-31.482c17.39,0,31.482,14.097,31.482,31.482
			c0,17.387-14.093,31.481-31.482,31.481C1912.428,70.834,1898.331,56.74,1898.331,39.353z"/>
		<circle fill="#6DABDD" cx="2008.516" cy="39.353" r="31.481"/>
		<path fill="#3D8E60" d="M1898.331,118.057c0-17.388,14.097-31.482,31.479-31.482c17.39,0,31.482,14.095,31.482,31.482
			c0,17.385-14.093,31.479-31.482,31.479C1912.428,149.536,1898.331,135.441,1898.331,118.057z"/>
		<circle fill="#4390BB" cx="2008.516" cy="118.057" r="31.481"/>
		<circle fill="#2A3881" cx="1929.812" cy="196.76" r="31.481"/>
		<circle fill="#9F4954" cx="2008.516" cy="196.76" r="31.481"/>
		<path fill="#2650A2" d="M1898.331,275.464c0-17.388,14.094-31.483,31.479-31.483c17.387,0,31.482,14.095,31.482,31.483
			c0,17.385-14.096,31.479-31.482,31.479C1912.425,306.943,1898.331,292.849,1898.331,275.464z"/>
		<path fill="#2E4098" d="M1977.035,275.464c0-17.388,14.094-31.483,31.479-31.483s31.482,14.095,31.482,31.483
			c0,17.385-14.097,31.479-31.482,31.479S1977.035,292.849,1977.035,275.464z"/>
		<path fill="#5B3E7B" d="M1898.331,354.168c0-17.386,14.097-31.482,31.479-31.482c17.39,0,31.482,14.096,31.482,31.482
			c0,17.387-14.093,31.481-31.482,31.481C1912.428,385.65,1898.331,371.555,1898.331,354.168z"/>
		<circle fill="#2E93B2" cx="2008.516" cy="354.168" r="31.481"/>
		<path fill="#1D3F75" d="M1898.331,432.871c0-17.385,14.097-31.481,31.479-31.481c17.39,0,31.482,14.096,31.482,31.481
			c0,17.386-14.093,31.481-31.482,31.481C1912.428,464.352,1898.331,450.257,1898.331,432.871z"/>
		<circle fill="#28387F" cx="2008.516" cy="432.871" r="31.481"/>
		<rect x="1890.462" fill="#1F181F" width="0" height="0"/>
		<path fill="#9F4954" d="M1898.331,511.579c0-17.388,14.097-31.482,31.479-31.482c17.39,0,31.482,14.095,31.482,31.482
			c0,17.383-14.093,31.482-31.482,31.482C1912.428,543.061,1898.331,528.962,1898.331,511.579z"/>
		<path fill="#4C73B7" d="M1977.035,511.579c0-17.388,14.096-31.482,31.482-31.482c17.386,0,31.479,14.095,31.479,31.482
			c0,17.383-14.094,31.482-31.479,31.482C1991.131,543.061,1977.035,528.962,1977.035,511.579z"/>
		<path fill="#3757A6" d="M1898.331,590.279c0-17.385,14.097-31.48,31.479-31.48c17.39,0,31.482,14.095,31.482,31.48
			c0,17.386-14.093,31.482-31.482,31.482C1912.428,621.762,1898.331,607.666,1898.331,590.279z"/>
		<circle fill="#4390BB" cx="2008.516" cy="590.279" r="31.481"/>
		<path fill="#2A3881" d="M1898.331,668.985c0-17.388,14.094-31.482,31.479-31.482c17.387,0,31.482,14.095,31.482,31.482
			c0,17.384-14.096,31.483-31.482,31.483C1912.425,700.468,1898.331,686.369,1898.331,668.985z"/>
		<path fill="#6DABDD" d="M1977.035,668.985c0-17.388,14.094-31.482,31.479-31.482s31.482,14.095,31.482,31.482
			c0,17.384-14.097,31.483-31.482,31.483S1977.035,686.369,1977.035,668.985z"/>
		<circle fill="#2650A2" cx="1929.812" cy="747.686" r="31.481"/>
		<circle fill="#28387F" cx="2008.516" cy="747.686" r="31.481"/>
		<path fill="#1C449B" d="M1898.331,826.393c0-17.385,14.097-31.482,31.479-31.482c17.39,0,31.482,14.098,31.482,31.482
			c0,17.388-14.093,31.482-31.482,31.482C1912.428,857.875,1898.331,843.78,1898.331,826.393z"/>
		<circle fill="#253D8A" cx="2008.516" cy="826.393" r="31.481"/>
		<path fill="#263D84" d="M1898.331,905.093c0-17.382,14.097-31.477,31.479-31.477c17.39,0,31.482,14.095,31.482,31.477
			c0,17.388-14.093,31.482-31.482,31.482C1912.428,936.575,1898.331,922.48,1898.331,905.093z"/>
		<path fill="#3D8E60" d="M1977.035,905.093c0-17.382,14.096-31.477,31.482-31.477c17.386,0,31.479,14.095,31.479,31.477
			c0,17.388-14.094,31.482-31.479,31.482C1991.131,936.575,1977.035,922.48,1977.035,905.093z"/>
		<rect x="1890.462" y="472.224" fill="#1F181F" width="0" height="0"/>
		<path fill="#95CA65" d="M1898.334,983.8c0-17.388,14.096-31.483,31.479-31.483c17.387,0,31.483,14.096,31.483,31.483
			c0,17.38-14.097,31.477-31.483,31.477C1912.43,1015.276,1898.334,1001.18,1898.334,983.8z"/>
		<path fill="#6DABDD" d="M1977.038,983.8c0-17.388,14.095-31.483,31.481-31.483c17.384,0,31.48,14.096,31.48,31.483
			c0,17.38-14.097,31.477-31.48,31.477C1991.133,1015.276,1977.038,1001.18,1977.038,983.8z"/>
		<rect x="1890.462" y="944.445" fill="#1F181F" width="0" height="0"/>
	</g>
</g>
<rect opacity="0.67" fill="#020202" width="2040" height="1020"/>
</svg>
