<?xml version="1.0" encoding="utf-8"?>
<!-- Generator: Adobe Illustrator 16.0.0, SVG Export Plug-In . SVG Version: 6.00 Build 0)  -->
<!DOCTYPE svg PUBLIC "-//W3C//DTD SVG 1.1//EN" "http://www.w3.org/Graphics/SVG/1.1/DTD/svg11.dtd">
<svg version="1.1" id="Layer_13" xmlns="http://www.w3.org/2000/svg" xmlns:xlink="http://www.w3.org/1999/xlink" x="0px" y="0px"
	 width="465px" height="130px" viewBox="0 0 465 130" enable-background="new 0 0 465 130" xml:space="preserve">
<g>
	<path fill="#F4F8FD" d="M325.178,124.666c-24.168,0-45.168-17.834-45.168-44.835c0-27.166,21-44.832,45.168-44.832
		c24.166,0,45.166,17.666,45.166,44.832C370.344,107.166,349.344,124.666,325.178,124.666z"/>
	<g>
		<path fill="#F4F8FD" d="M7.317,123.334V5h51.5c21.333,0,36.668,19.499,36.668,38.5c0,15.833-9.167,30.333-23.167,34.834l28.167,45
			H79.318l-26-41.167H25.984v41.167H7.317z M25.984,65.665h32.667c10.5,0,17.833-10.165,17.833-22.165
			c0-12.167-9-22.001-18.834-22.001H25.984V65.665z"/>
		<path fill="#F4F8FD" d="M102.021,79.999c0-24.665,18-45.333,45.334-45.333c27.334,0,44.501,20.999,44.501,44.501
			c0,2.666-0.333,5.167-0.5,6.665h-69.834c1.167,15.336,12.834,25.669,26.334,25.669c9.833,0,19.5-5.334,22.833-13.334l15.668,4.501
			c-6.001,13-20.834,22.332-39.167,22.332C120.021,125,102.021,104.333,102.021,79.999z M173.689,73.169
			c-1.5-14.834-12.5-25.002-26.5-25.002c-13.834,0-25,10.168-26.167,25.002H173.689z"/>
		<path fill="#F4F8FD" d="M240.657,34.666c18,0,31.333,8.667,37.833,21.667L260.659,62c-4.167-7.333-11.668-11.668-20.335-11.668
			c-14.667,0-26,12.17-26,29.336c0,16.831,11.833,29.665,26.168,29.665c8.998,0,17.999-5.333,20.666-11.999l17.999,5.334
			c-5.667,13-20.167,22.332-38.5,22.332c-27.166,0-45.167-21-45.167-45.332C195.49,55.166,213.158,34.666,240.657,34.666z"/>
		<path fill="#F4F8FD" d="M457.683,123.334h-18.336V74.5c0-16.333-5.499-23.501-15.498-23.501c-10.667,0-22.335,8.668-26.168,20.501
			v51.834h-18.333V36.166h16.667v17.5c6.666-11.666,20.167-19,35.5-19c21,0,26.168,16.333,26.168,35.502V123.334z"/>
	</g>
	<path fill="#0090A8" d="M325.178,110.163c-16.35,0-30.56-12.063-30.56-30.332c0-18.379,14.21-30.329,30.56-30.329
		c16.348,0,30.555,11.95,30.555,30.329C355.732,98.324,341.525,110.163,325.178,110.163z"/>
	<path fill="#0C0F0F" d="M325.175,94.998c-8.173,0-15.278-6.033-15.278-15.167c0-9.188,7.105-15.164,15.278-15.164
		c8.177,0,15.279,5.976,15.279,15.164C340.454,89.079,333.352,94.998,325.175,94.998z"/>
	<path fill="#F4F8FD" d="M322.397,77.013c-2.974,0-5.556-2.192-5.556-5.516c0-3.339,2.582-5.512,5.556-5.512
		c2.973,0,5.556,2.173,5.556,5.512C327.953,74.861,325.37,77.013,322.397,77.013z"/>
</g>
</svg>
